<svg width="145" height="120" viewBox="0 0 145 120" fill="none" xmlns="http://www.w3.org/2000/svg">
<path fill-rule="evenodd" clip-rule="evenodd" d="M7.70815 51.1395L44.8856 51.1384C56.4191 52.8994 54.2685 69.5009 44.3785 69.9518H41.0418L38.9915 73.6295L35.1888 69.9522L7.87903 69.9528C-2.49653 68.4463 -2.69769 52.647 7.70815 51.1395Z" fill="#AF4DFF"/>
<path fill-rule="evenodd" clip-rule="evenodd" d="M41.3051 11.2006L60.8432 27.8143C68.0987 37.1384 55.6509 47.6296 47.3346 41.0227L28.9807 25.402C22.7536 17.0779 31.9772 6.05783 41.3051 11.2006Z" fill="#E0005A"/>
<path fill-rule="evenodd" clip-rule="evenodd" d="M48.8841 79.0175L29.6055 95.409C23.4632 104.368 34.2942 114.292 43.098 108.634L62.0217 92.5415C67.9654 84.7937 58.1712 73.3988 48.8841 79.0175Z" fill="#00D47B"/>
<path fill-rule="evenodd" clip-rule="evenodd" d="M70.4148 110.969L70.4164 98.4013C72.1294 86.8155 87.6453 87.1198 89.1465 97.7807L89.1459 111.165C89.1459 122.49 71.1405 123.459 70.4148 110.969Z" fill="#F7AD00"/>
<path fill-rule="evenodd" clip-rule="evenodd" d="M123.158 93.8131C118.679 94.3922 112.113 95.8129 108.263 93.0791C106.203 91.616 104.814 89.9045 104.133 88.0363C102.916 84.6953 103.793 81.0204 105.935 78.5654C109.005 75.0481 114.766 73.446 120.052 78.1235C124.803 82.3273 122.927 88.0397 123.158 93.8131Z" fill="#00D47B"/>
<path fill-rule="evenodd" clip-rule="evenodd" d="M70.3552 22.8557L70.4079 8.50202C71.6434 -4.2114 89.2715 -1.32011 89.224 8.3403L89.1686 18.5231L91.8442 19.1801L89.1686 22.4833C87.8024 32.75 71.614 32.4382 70.3552 22.8557Z" fill="#AF4DFF"/>
<path d="M113.978 45.1992C119.38 45.1992 123.76 41.1618 123.76 36.1813C123.76 31.2008 119.38 27.1633 113.978 27.1633C108.575 27.1633 104.195 31.2008 104.195 36.1813C104.195 41.1618 108.575 45.1992 113.978 45.1992Z" fill="#F7AD00"/>
<path fill-rule="evenodd" clip-rule="evenodd" d="M74.0161 74.0111L98.4724 59.8848C99.5176 59.2911 99.602 59.3274 98.4092 58.6654L73.9469 44.5487C72.9106 43.9407 72.8999 43.8493 72.9231 45.2132L72.9284 73.4565C72.9202 74.658 72.8465 74.713 74.0161 74.0111Z" fill="#00BEFF"/>
<path d="M79.9597 11.7144V19.0366" stroke="#FCFCFC" stroke-width="0.951762" stroke-miterlimit="22.9256" stroke-linecap="round" stroke-linejoin="round"/>
<path d="M79.9407 101.289C81.0435 101.289 81.9375 100.395 81.9375 99.292C81.9375 98.1892 81.0435 97.2952 79.9407 97.2952C78.8378 97.2952 77.9438 98.1892 77.9438 99.292C77.9438 100.395 78.8378 101.289 79.9407 101.289Z" fill="#FCFCFC"/>
<path d="M79.9405 107.333C81.0433 107.333 81.9373 106.439 81.9373 105.336C81.9373 104.233 81.0433 103.339 79.9405 103.339C78.8377 103.339 77.9437 104.233 77.9437 105.336C77.9437 106.439 78.8377 107.333 79.9405 107.333Z" fill="#FCFCFC"/>
<path d="M79.9406 113.376C81.0434 113.376 81.9374 112.482 81.9374 111.379C81.9374 110.277 81.0434 109.383 79.9406 109.383C78.8378 109.383 77.9438 110.277 77.9438 111.379C77.9438 112.482 78.8378 113.376 79.9406 113.376Z" fill="#FCFCFC"/>
<path d="M137.887 16.5625H136.41V18.0732H135.035V16.5625H133.558V15.2641H135.035V13.745H136.41V15.2641H137.887V16.5625Z" fill="black"/>
</svg>
