<svg width="24" height="24" viewBox="0 0 24 24" fill="none" xmlns="http://www.w3.org/2000/svg">
<path d="M19.174 17.26C19.4276 17.26 19.6709 17.1593 19.8503 16.9801C20.0298 16.8008 20.1307 16.5576 20.131 16.304V4.826C20.131 4.70037 20.1062 4.57598 20.0581 4.45992C20.01 4.34387 19.9395 4.23844 19.8506 4.14965C19.7618 4.06087 19.6563 3.99047 19.5402 3.94248C19.424 3.8945 19.2996 3.86987 19.174 3.87H9.722C9.54441 3.86939 9.37047 3.81952 9.21952 3.72596C9.06858 3.63239 8.94655 3.49878 8.867 3.34L7.96 1.53C7.88045 1.37122 7.75842 1.23761 7.60748 1.14404C7.45653 1.05048 7.28259 1.00061 7.105 1H1.957C1.70319 1 1.45977 1.10083 1.2803 1.2803C1.10083 1.45977 1 1.70319 1 1.957V16.304C0.999869 16.4297 1.02453 16.5542 1.07258 16.6704C1.12063 16.7866 1.19111 16.8921 1.28001 16.981C1.3689 17.0699 1.47445 17.1404 1.59062 17.1884C1.70678 17.2365 1.83129 17.2611 1.957 17.261L19.174 17.26Z" fill="#00D47B"/>
<path d="M9.722 3.87C9.54441 3.86939 9.37047 3.81952 9.21952 3.72596C9.06858 3.63239 8.94655 3.49878 8.867 3.34L7.96 1.53C7.88045 1.37122 7.75842 1.23761 7.60748 1.14404C7.45653 1.05048 7.28259 1.00061 7.105 1H1.957C1.70319 1 1.45977 1.10083 1.2803 1.2803C1.10083 1.45977 1 1.70319 1 1.957V16.304C0.999869 16.4297 1.02453 16.5542 1.07258 16.6704C1.12063 16.7866 1.19111 16.8921 1.28001 16.981C1.3689 17.0699 1.47445 17.1404 1.59062 17.1884C1.70678 17.2365 1.83129 17.2611 1.957 17.261H2.627L16.017 3.87H9.722Z" fill="#53FFB7"/>
<path d="M20.131 8.652V4.826C20.131 4.70037 20.1062 4.57598 20.0581 4.45992C20.01 4.34387 19.9395 4.23844 19.8506 4.14965C19.7618 4.06087 19.6563 3.99047 19.5402 3.94248C19.424 3.8945 19.2996 3.86987 19.174 3.87H9.722C9.54441 3.86939 9.37047 3.81952 9.21952 3.72596C9.06858 3.63239 8.94655 3.49878 8.867 3.34L7.96 1.53C7.88045 1.37122 7.75842 1.23761 7.60748 1.14404C7.45653 1.05048 7.28259 1.00061 7.105 1H1.957C1.70319 1 1.45977 1.10083 1.2803 1.2803C1.10083 1.45977 1 1.70319 1 1.957V16.304C0.999869 16.4297 1.02453 16.5542 1.07258 16.6704C1.12063 16.7866 1.19111 16.8921 1.28001 16.981C1.3689 17.0699 1.47445 17.1404 1.59062 17.1884C1.70678 17.2365 1.83129 17.2611 1.957 17.261H8.653" stroke="black" stroke-width="0.2" stroke-linecap="round" stroke-linejoin="round"/>
<path d="M13.674 20.13C14.2447 20.13 14.7921 19.9033 15.1957 19.4997C15.5992 19.0961 15.826 18.5488 15.826 17.978C15.826 17.4073 15.5992 16.8599 15.1957 16.4563C14.7921 16.0527 14.2447 15.826 13.674 15.826C13.1032 15.826 12.5559 16.0527 12.1523 16.4563C11.7487 16.8599 11.522 17.4073 11.522 17.978C11.522 18.5488 11.7487 19.0961 12.1523 19.4997C12.5559 19.9033 13.1032 20.13 13.674 20.13ZM20.848 23C21.4191 23 21.9669 22.7731 22.3707 22.3693C22.7746 21.9654 23.0015 21.4177 23.0015 20.8465C23.0015 20.2754 22.7746 19.7276 22.3707 19.3238C21.9669 18.9199 21.4191 18.693 20.848 18.693C20.2768 18.693 19.7291 18.9199 19.3252 19.3238C18.9214 19.7276 18.6945 20.2754 18.6945 20.8465C18.6945 21.4177 18.9214 21.9654 19.3252 22.3693C19.7291 22.7731 20.2768 23 20.848 23ZM20.848 15.826C21.419 15.826 21.9666 15.5992 22.3704 15.1954C22.7741 14.7917 23.001 14.244 23.001 13.673C23.001 13.102 22.7741 12.5544 22.3704 12.1506C21.9666 11.7469 21.419 11.52 20.848 11.52C20.277 11.52 19.7293 11.7469 19.3256 12.1506C18.9218 12.5544 18.695 13.102 18.695 13.673C18.695 14.244 18.9218 14.7917 19.3256 15.1954C19.7293 15.5992 20.277 15.826 20.848 15.826Z" fill="#00D47B" stroke="black" stroke-width="0.2" stroke-linecap="round" stroke-linejoin="round"/>
<path d="M15.516 16.8738L19.006 14.7788M15.672 18.7768L18.852 20.0488" stroke="black" stroke-width="0.2" stroke-linecap="round" stroke-linejoin="round"/>
</svg>
