<svg width="317" height="308" viewBox="0 0 317 308" fill="none" xmlns="http://www.w3.org/2000/svg">
<path fill-rule="evenodd" clip-rule="evenodd" d="M19.7254 130.866L114.863 130.864C144.377 135.37 138.874 177.854 113.565 179.007H105.027L99.7799 188.419L90.0488 179.009L20.1627 179.01C-6.3885 175.155 -6.90326 134.724 19.7254 130.866Z" fill="#AF4DFF"/>
<path fill-rule="evenodd" clip-rule="evenodd" d="M105.701 28.6623L155.699 71.1771C174.266 95.0376 142.412 121.885 121.13 104.977L74.1625 65.004C58.2273 43.7026 81.8304 15.502 105.701 28.6623Z" fill="#E0005A"/>
<path fill-rule="evenodd" clip-rule="evenodd" d="M125.096 202.207L75.7615 244.153C60.0432 267.078 87.76 292.476 110.289 277.997L158.715 236.815C173.925 216.988 148.861 187.829 125.096 202.207Z" fill="#00D47B"/>
<path fill-rule="evenodd" clip-rule="evenodd" d="M180.192 283.97L180.197 251.809C184.58 222.161 224.286 222.94 228.127 250.221L228.126 284.473C228.126 313.453 182.05 315.933 180.192 283.97Z" fill="#F7AD00"/>
<path fill-rule="evenodd" clip-rule="evenodd" d="M315.163 240.068C303.703 241.55 286.9 245.186 277.046 238.19C271.774 234.446 268.22 230.066 266.479 225.285C263.364 216.736 265.608 207.331 271.09 201.049C278.944 192.048 293.688 187.949 307.214 199.918C319.372 210.676 314.572 225.294 315.163 240.068Z" fill="#00D47B"/>
<path fill-rule="evenodd" clip-rule="evenodd" d="M180.04 58.4881L180.175 21.7568C183.337 -10.777 228.447 -3.37819 228.325 21.3429L228.184 47.4009L235.031 49.082L228.184 57.5349C224.688 83.8076 183.261 83.0097 180.04 58.4881Z" fill="#AF4DFF"/>
<path d="M291.671 115.664C305.496 115.664 316.704 105.332 316.704 92.5873C316.704 79.8422 305.496 69.5103 291.671 69.5103C277.845 69.5103 266.638 79.8422 266.638 92.5873C266.638 105.332 277.845 115.664 291.671 115.664Z" fill="#F7AD00"/>
<path fill-rule="evenodd" clip-rule="evenodd" d="M189.409 189.395L251.993 153.246C254.668 151.726 254.883 151.819 251.831 150.125L189.232 114.001C186.58 112.445 186.553 112.211 186.612 115.701L186.625 187.976C186.604 191.05 186.416 191.191 189.409 189.395Z" fill="#00BEFF"/>
<path d="M204.618 29.9766V48.7143" stroke="#000A24" stroke-width="5.33329" stroke-miterlimit="22.9256" stroke-linecap="round" stroke-linejoin="round"/>
<path d="M204.57 259.199C207.392 259.199 209.68 256.912 209.68 254.089C209.68 251.267 207.392 248.979 204.57 248.979C201.748 248.979 199.46 251.267 199.46 254.089C199.46 256.912 201.748 259.199 204.57 259.199Z" fill="#000A24"/>
<path d="M204.57 274.665C207.392 274.665 209.68 272.377 209.68 269.555C209.68 266.733 207.392 264.445 204.57 264.445C201.748 264.445 199.46 266.733 199.46 269.555C199.46 272.377 201.748 274.665 204.57 274.665Z" fill="#000A24"/>
<path d="M204.57 290.131C207.392 290.131 209.68 287.843 209.68 285.021C209.68 282.199 207.392 279.911 204.57 279.911C201.748 279.911 199.46 282.199 199.46 285.021C199.46 287.843 201.748 290.131 204.57 290.131Z" fill="#000A24"/>
</svg>
